<svg t="1596620977731" class="icon" viewBox="0 0 1024 1024" version="1.1" xmlns="http://www.w3.org/2000/svg" p-id="2100" width="200" height="200"><path d="M830.013662 130.380533h-59.385348c-13.5716 0-24.573248 11.001648-24.573248 24.573248s11.001648 24.573248 24.573248 24.573248h59.385348c9.032716 0 16.382165 7.349449 16.382166 16.382165v757.504152c0 9.032716-7.349449 16.382165-16.382166 16.382165H192.918425c-9.032716 0-16.382165-7.349449-16.382165-16.382165V195.909194c0-9.032716 7.349449-16.382165 16.382165-16.382165h60.710257c13.5716 0 24.573248-11.001648 24.573247-24.573248s-11.001648-24.573248-24.573247-24.573248h-60.710257c-36.132913 0-65.528661 29.395748-65.528661 65.528661v757.504152c0 36.132913 29.395748 65.528661 65.528661 65.52866h637.095237c36.132913 0 65.528661-29.395748 65.528661-65.52866V195.909194c0-36.132913-29.395748-65.528661-65.528661-65.528661z" fill="#d4237a" p-id="2101"></path><path d="M328.066169 179.527029h368.612027c13.5716 0 24.573248-11.001648 24.573248-24.573248s-11.001648-24.573248-24.573248-24.573248h-51.538292c-6.729998-71.774361-64.563137-128.037884-134.685971-128.037883-70.12181 0-127.954949 56.263522-134.684947 128.037883h-47.702817c-13.5716 0-24.573248 11.001648-24.573248 24.573248s11.001648 24.573248 24.573248 24.573248zM510.453933 51.488121c43.109668 0 78.928248 34.287872 85.217976 78.891388H425.236981c6.289728-44.602493 42.108308-78.891388 85.216952-78.891388zM258.789064 366.242757c0 13.5716 11.001648 24.573248 24.573247 24.573248h455.294159c13.5716 0 24.573248-11.001648 24.573248-24.573248s-11.001648-24.573248-24.573248-24.573248H283.362311c-13.5716 0-24.573248 11.001648-24.573247 24.573248zM738.65647 554.636633H283.362311c-13.5716 0-24.573248 11.001648-24.573247 24.573247s11.001648 24.573248 24.573247 24.573248h455.294159c13.5716 0 24.573248-11.001648 24.573248-24.573248s-11.001648-24.573248-24.573248-24.573247zM738.65647 767.60478H283.362311c-13.5716 0-24.573248 11.001648-24.573247 24.573248s11.001648 24.573248 24.573247 24.573248h455.294159c13.5716 0 24.573248-11.001648 24.573248-24.573248s-11.001648-24.573248-24.573248-24.573248z" fill="#d4237a" p-id="2102"></path></svg>